inDegrees=no
num_controls=7
num_derivatives=13
num_iterations=158
num_multipliers=7
num_parameters=0
num_slacks=7
num_states=26
objective=5.603570
objective_accelerations=0.281954
objective_balance=0.015809
objective_effort=0.374054
objective_height=4.844231
objective_ligament=0.087522
solver_duration=1349.136641
status=Solve_Succeeded
success=true
DataType=double
version=3
OpenSimVersion=4.4-2022-07-23-0e9fedc
endheader
time	/jointset/ground_pelvis/pelvis_tilt/value	/jointset/ground_pelvis/pelvis_tx/value	/jointset/ground_pelvis/pelvis_ty/value	/jointset/hip_r/hip_flexion_r/value	/jointset/hip_r/hip_adduction_r/value	/jointset/hip_r/hip_rotation_r/value	/jointset/back/lumbar_extension/value	/jointset/patellofemoral_r/patellar_flexion_r/value	/jointset/knee_r/knee_flexion_r/value	/jointset/knee_r/knee_adduction_r/value	/jointset/knee_r/knee_rotation_r/value	/jointset/ankle_r/ankle_angle_r/value	/jointset/subtalar_r/subtalar_angle_r/value	/jointset/ground_pelvis/pelvis_tilt/speed	/jointset/ground_pelvis/pelvis_tx/speed	/jointset/ground_pelvis/pelvis_ty/speed	/jointset/hip_r/hip_flexion_r/speed	/jointset/hip_r/hip_adduction_r/speed	/jointset/hip_r/hip_rotation_r/speed	/jointset/back/lumbar_extension/speed	/jointset/patellofemoral_r/patellar_flexion_r/speed	/jointset/knee_r/knee_flexion_r/speed	/jointset/knee_r/knee_adduction_r/speed	/jointset/knee_r/knee_rotation_r/speed	/jointset/ankle_r/ankle_angle_r/speed	/jointset/subtalar_r/subtalar_angle_r/speed	/forceset/tau_hip_flexion_r	/forceset/tau_hip_adduction_r	/forceset/tau_hip_rotation_r	/forceset/tau_knee_flexion_r	/forceset/tau_ankle_angle_r	/forceset/tau_subtalar_angle_r	/forceset/tau_lumbar_extension	lambda_cid13_p0	lambda_cid14_p0	lambda_cid14_p1	lambda_cid14_p2	lambda_cid14_p3	lambda_cid14_p4	lambda_cid14_p5	/jointset/ground_pelvis/pelvis_tilt/accel	/jointset/ground_pelvis/pelvis_tx/accel	/jointset/ground_pelvis/pelvis_ty/accel	/jointset/hip_r/hip_flexion_r/accel	/jointset/hip_r/hip_adduction_r/accel	/jointset/hip_r/hip_rotation_r/accel	/jointset/back/lumbar_extension/accel	/jointset/patellofemoral_r/patellar_flexion_r/accel	/jointset/knee_r/knee_flexion_r/accel	/jointset/knee_r/knee_adduction_r/accel	/jointset/knee_r/knee_rotation_r/accel	/jointset/ankle_r/ankle_angle_r/accel	/jointset/subtalar_r/subtalar_angle_r/accel	gamma_cid13_p0	gamma_cid14_p0	gamma_cid14_p1	gamma_cid14_p2	gamma_cid14_p3	gamma_cid14_p4	gamma_cid14_p5
0	-0.006516605642430123	0.09626116835075102	0.942724040648609	0.1762555651711513	-0.2321525960813023	-0.261640445777284	-0.0385979564078546	0.07317816487761267	0.07317816487761825	0.1745326676020026	0.1745325793568319	0.0324735960626065	-0.003451688826115045	0	0	0	0	0	0	0	0	0	0	0	0	0	0.2116289267507651	-0.1367990840976965	-0.04497248001276242	-0.4092772517902314	0.4284319544065974	-0.1698389312195828	-0.1064442863935324	-39.0762771449701	87.00097202437229	-48.64903848729794	-3.067975174903255	-45.89146354075228	-683.4675849987888	38.19725890967888	-0.6469876788921656	-0.4383224548487318	-0.3345457466043646	5.3363390350563	0.3919992726043517	1.790438523980586	-4.419002669716097	6.889009332109156	6.88900933210884	-2.647545379564292	0.1187713096205827	2.976181396361663	1.092545585809569	7.204909852986336e-08	5.075119640916394e-08	-4.468923991397956e-07	1.690960387763582e-07	2.008030205120763e-08	1.392306832739388e-08	-2.656575589041645e-07
0.01	-0.006544956255489948	0.09623991946912153	0.9427080901374818	0.1765127877648501	-0.2321320316715482	-0.2615444056059071	-0.03881963258750722	0.073513204190837	0.07351320419108662	0.1744001460393177	0.1745293330004277	0.03261981977712045	-0.003396717976644018	-0.005639666632289589	-0.004202227892320868	-0.003183608337212071	0.05117743152609266	0.004049430458274137	0.01910486220749955	-0.04403818776368727	0.06673638416598013	0.06673638416598002	-0.02629248490302296	-0.0006207707261653203	0.0291481523487481	0.01090633653444835	0.2079206138728821	-0.1726652498583275	-0.04366108974642401	-0.4047429519258635	0.4143084149497129	-0.1337356413220167	-0.1033422682502142	-39.08727158468155	83.83133733005394	-33.70996769753138	-5.237663359380012	-44.9301026021212	-683.8306968612826	67.82564095599453	-0.5178819214053536	-0.404036673136375	-0.3092915095543327	4.968387913688722	0.4018596401517613	1.955072237093059	-4.351669605905578	6.525216765472059	6.525216765472072	-2.588375741051364	-0.1481814456864409	2.869656852851624	1.076451550649727	1.016121615947618e-07	6.763992984978569e-08	-6.201553056980083e-07	1.982798841489538e-07	3.533984222822268e-08	-6.084793387936771e-08	-3.440033265374189e-07
0.02	-0.006628788688054971	0.09617807556522717	0.942660498916529	0.1772737732142586	-0.2320728840156841	-0.2612604043789243	-0.03947277920004888	0.0745074601078228	0.07450746010782616	0.1740110444876734	0.1745207428987469	0.03305462995484242	-0.00323532898915093	-0.01109636390523381	-0.008119004452966854	-0.006328141965098909	0.100752571144154	0.007716649225011613	0.03759221113343321	-0.08629408657590627	0.1318433205971684	0.1318433205971756	-0.05131599762126916	-0.001068748730278565	0.05771729264632027	0.02128362760439828	0.2042123009950704	-0.2085314156188362	-0.04234969948628124	-0.4002086520600729	0.4001848754931149	-0.09763235142415931	-0.1002402501071392	-39.11985977050031	80.7251573233539	-18.77711050325975	-7.38657151921038	-44.12464107049316	-683.24615745447	97.2553339099272	-0.6103938070239707	-0.3812321885129757	-0.3267308047393593	5.015880653449882	0.3155569342967891	1.666935867666832	-4.062544879422952	6.563119785150766	6.563119785151932	-2.393750942608436	0.1533298540316296	2.860378986127267	0.9867364929098474	1.311752246596602e-07	8.452866329040747e-08	-7.934182122562209e-07	2.274637295215493e-07	5.059938240523775e-08	-1.356189360861293e-07	-4.223490941706732e-07
0.03	-0.006766327825689401	0.0960780591533926	0.9425815100155814	0.178523237245925	-0.2319790319462866	-0.2607960971005624	-0.04053955485751182	0.0761451813649176	0.07614518136506165	0.1733782554507657	0.1745098923089383	0.03377180311625674	-0.002972927049028809	-0.01636397921861378	-0.01187871293283458	-0.00947370091178301	0.148903201025484	0.01098539876149248	0.05518348019202174	-0.1267841398043659	0.195424608429923	0.1954246084299315	-0.0750105702179705	-0.001110626712597326	0.08556461951930711	0.03109256859663877	0.1984891216693146	-0.1921598826218697	-0.0408978088555267	-0.3922008211520784	0.3909207855225552	-0.1074754475621957	-0.09577973031988786	-39.17339425083633	77.38817455432007	-23.62020527335379	-6.632775574870492	-41.58594911019087	-682.9788975782033	86.4804191945663	-0.4778074857818779	-0.3724952469993094	-0.3091052687422661	4.679111280825391	0.3222040516242057	1.79241243523991	-4.000699779291895	6.214158565469103	6.214158565468608	-2.322721154850613	-0.08426811159513602	2.724028687810787	0.962244195058501	1.410921213912881e-07	8.73318422902595e-08	-8.501164816327189e-07	2.145227049564665e-07	5.925764665851688e-08	-1.99969409626013e-07	-4.28985862731399e-07
0.04	-0.006955115534874578	0.09594061464290626	0.9424709381593459	0.1802470990015115	-0.2318545583638586	-0.2601584391295109	-0.04200292389418769	0.07841042055720031	0.07841042055721913	0.1725154385400129	0.1744983586412557	0.03476287337640123	-0.002615581440448769	-0.02134607822358729	-0.01560462418332046	-0.01264473302266904	0.1956321159208756	0.01384095183004724	0.07226234966203669	-0.1656127624223072	0.2573469075879263	0.2573469075879312	-0.09732157228062185	-0.001205364184144233	0.112496712389351	0.04027236129596146	0.1927659423435421	-0.1757883496250844	-0.03944591822678443	-0.3841929902438728	0.381656695551897	-0.1173185437004159	-0.09131921053251796	-39.2469604264681	74.10897590723387	-28.47762903291255	-5.848770477978385	-39.1884948143841	-681.8235720963872	75.502651632588	-0.5532905453434919	-0.3744727426358839	-0.3318254375797837	4.73153765626204	0.2329176407113484	1.564455949951573	-3.730258757319765	6.23132205020048	6.231322050200697	-2.117036835797974	0.1427579561866064	2.677332185539413	0.8609068343262496	1.506039425284155e-07	8.984459748720908e-08	-9.044113564281507e-07	2.0071312637205e-07	6.777980212986332e-08	-2.64105026904724e-07	-4.341440952287737e-07
